<?xml version="1.0" encoding="UTF-8" standalone="no"?> <svg width="64" height="64" viewBox="0 0 64 64" fill="none" xmlns="http://www.w3.org/2000/svg">
<path d="M54.52 32.93C54.8395 33.9219 55.0015 34.9579 55 36C54.9244 37.2946 54.5752 38.5585 53.9753 39.7082C53.3755 40.858 52.5386 41.8674 51.52 42.67C50.9362 41.2488 50.1734 39.908 49.25 38.68C51.29 37.42 53 35.34 53 33C53.0017 32.9066 52.9983 32.8131 52.99 32.72C53.2946 32.9042 53.644 33.001 54 33C54.1759 33.0027 54.3511 32.9791 54.52 32.93V32.93Z" fill="#BDDBFF"/>
<path d="M23 57H13.69C13.259 54.6909 13.0282 52.3488 13 50C12.9983 48.5156 13.1457 47.0349 13.44 45.58C13.7747 43.9462 14.2948 42.3559 14.99 40.84C15.2453 40.276 15.529 39.7253 15.84 39.19C16.9281 40.6809 18.3531 41.8937 19.9987 42.7296C21.6444 43.5654 23.4642 44.0007 25.31 44H32.69C33.7547 44.0008 34.8145 43.8562 35.84 43.57C37.8571 42.9901 39.6864 41.8904 41.1449 40.3811C42.6033 38.8718 43.6396 37.0058 44.15 34.97C44.21 34.75 44.26 34.53 44.3 34.31C44.3182 34.2309 44.3316 34.1507 44.34 34.07C46.2394 35.3004 47.9024 36.8619 49.25 38.68C50.1734 39.908 50.9362 41.2488 51.52 42.67C52.5036 44.9882 53.007 47.4818 53 50C53.0033 52.3964 52.552 54.7717 51.67 57H42V59H36V57H27V59H23V57Z" fill="#BDDBFF"/>
<path d="M29 40C30.66 40 32 39.1 32 38C32 36.9 30.66 36 29 36C27.34 36 26 36.9 26 38C26 39.1 27.34 40 29 40ZM18.99 16.73C18.9462 16.9215 18.9588 17.1216 19.0263 17.3062C19.0937 17.4907 19.2131 17.6518 19.37 17.77C20.412 18.5678 21.6877 19.0001 23 19.0001C24.3123 19.0001 25.5881 18.5678 26.63 17.77C26.787 17.6518 26.9064 17.4907 26.9738 17.3062C27.0412 17.1216 27.0538 16.9215 27.01 16.73L26.17 13.09L25.92 12H32.08L31.83 13.09L30.99 16.73C30.9462 16.9215 30.9588 17.1216 31.0263 17.3062C31.0937 17.4907 31.2131 17.6518 31.37 17.77C32.412 18.5678 33.6877 19.0001 35 19.0001C36.3123 19.0001 37.5881 18.5678 38.63 17.77C38.787 17.6518 38.9064 17.4907 38.9738 17.3062C39.0412 17.1216 39.0538 16.9215 39.01 16.73L38.32 13.74C38.9204 14.1078 39.4861 14.5296 40.01 15C40.9738 15.8547 41.7912 16.8614 42.43 17.98C42.8232 18.6568 43.1418 19.3744 43.38 20.12C43.7252 21.1139 43.9337 22.15 44 23.2V23.25L44.49 31.25C44.5512 32.1926 44.5008 33.1392 44.34 34.07C44.3316 34.1507 44.3182 34.2309 44.3 34.31C44.26 34.53 44.21 34.75 44.15 34.97C43.6396 37.0058 42.6033 38.8718 41.1449 40.3811C39.6865 41.8904 37.8571 42.9901 35.84 43.57C34.8145 43.8562 33.7547 44.0008 32.69 44H25.31C24.2453 44.0008 23.1855 43.8562 22.16 43.57C19.6311 42.8403 17.4111 41.3018 15.84 39.19C14.1544 36.8994 13.3294 34.0882 13.51 31.25L14 23.25V23.2C14.0663 22.15 14.2749 21.1139 14.62 20.12C14.8583 19.3744 15.1768 18.6568 15.57 17.98C16.2088 16.8614 17.0263 15.8547 17.99 15C18.5139 14.5296 19.0796 14.1078 19.68 13.74L18.99 16.73ZM39 32C39 31.6044 38.8827 31.2178 38.663 30.8889C38.4432 30.56 38.1308 30.3036 37.7654 30.1522C37.3999 30.0009 36.9978 29.9613 36.6098 30.0384C36.2219 30.1156 35.8655 30.3061 35.5858 30.5858C35.3061 30.8655 35.1156 31.2219 35.0385 31.6098C34.9613 31.9978 35.0009 32.3999 35.1523 32.7654C35.3036 33.1308 35.56 33.4432 35.8889 33.6629C36.2178 33.8827 36.6045 34 37 34C37.53 33.9984 38.0378 33.7872 38.4125 33.4125C38.7872 33.0377 38.9984 32.5299 39 32ZM23 32C23 31.6044 22.8827 31.2178 22.663 30.8889C22.4432 30.56 22.1308 30.3036 21.7654 30.1522C21.3999 30.0009 20.9978 29.9613 20.6098 30.0384C20.2219 30.1156 19.8655 30.3061 19.5858 30.5858C19.3061 30.8655 19.1156 31.2219 19.0385 31.6098C18.9613 31.9978 19.0009 32.3999 19.1523 32.7654C19.3036 33.1308 19.56 33.4432 19.8889 33.6629C20.2178 33.8827 20.6045 34 21 34C21.53 33.9984 22.0378 33.7872 22.4125 33.4125C22.7872 33.0377 22.9984 32.5299 23 32Z" fill="#BDDBFF"/>
<path d="M36.241 24.1C36.4122 24.0012 36.6089 23.9553 36.8062 23.9683C37.0034 23.9812 37.1924 24.0523 37.3493 24.1725C37.5062 24.2928 37.6239 24.4569 37.6875 24.644C37.7512 24.8312 37.758 25.033 37.707 25.224L39.639 25.743C39.845 24.9739 39.7369 24.1544 39.3387 23.4649C38.9405 22.7755 38.2846 22.2724 37.5155 22.0665C36.7464 21.8606 35.927 21.9686 35.2375 22.3668C34.548 22.765 34.045 23.4209 33.839 24.19L35.77 24.707C35.8046 24.5798 35.8641 24.4606 35.9449 24.3565C36.0257 24.2523 36.1264 24.1651 36.241 24.1Z" fill="#3D9AE2"/>
<path d="M37 29C36.4067 29 35.8266 29.1759 35.3333 29.5056C34.8399 29.8352 34.4554 30.3038 34.2284 30.8519C34.0013 31.4001 33.9419 32.0033 34.0576 32.5853C34.1734 33.1672 34.4591 33.7018 34.8787 34.1213C35.2982 34.5409 35.8328 34.8266 36.4147 34.9424C36.9967 35.0581 37.5999 34.9987 38.148 34.7716C38.6962 34.5446 39.1648 34.1601 39.4944 33.6667C39.8241 33.1734 40 32.5933 40 32C40 31.2044 39.6839 30.4413 39.1213 29.8787C38.5587 29.3161 37.7957 29 37 29ZM37 33C36.8022 33 36.6089 32.9414 36.4444 32.8315C36.28 32.7216 36.1518 32.5654 36.0761 32.3827C36.0004 32.2 35.9806 31.9989 36.0192 31.8049C36.0578 31.6109 36.153 31.4327 36.2929 31.2929C36.4327 31.153 36.6109 31.0578 36.8049 31.0192C36.9989 30.9806 37.2 31.0004 37.3827 31.0761C37.5654 31.1518 37.7216 31.28 37.8315 31.4444C37.9414 31.6089 38 31.8022 38 32C38 32.2652 37.8946 32.5196 37.7071 32.7071C37.5196 32.8946 37.2652 33 37 33Z" fill="#3D9AE2"/>
<path d="M20.293 25.224C20.2259 24.9683 20.2627 24.6963 20.3955 24.4677C20.5283 24.2391 20.7463 24.0723 21.0017 24.004C21.2571 23.9356 21.5292 23.9712 21.7585 24.103C21.9877 24.2347 22.1555 24.4519 22.225 24.707L24.156 24.19C24.0582 23.805 23.8849 23.4432 23.6462 23.1256C23.4074 22.8081 23.108 22.5412 22.7652 22.3403C22.4225 22.1394 22.0432 22.0086 21.6495 21.9555C21.2558 21.9024 20.8555 21.928 20.4718 22.0308C20.0881 22.1337 19.7286 22.3117 19.4142 22.5546C19.0998 22.7975 18.8368 23.1004 18.6405 23.4457C18.4441 23.791 18.3183 24.172 18.2703 24.5663C18.2223 24.9607 18.2532 25.3606 18.361 25.743L20.293 25.224Z" fill="#3D9AE2"/>
<path d="M21 35C21.5933 35 22.1734 34.8241 22.6667 34.4944C23.1601 34.1648 23.5446 33.6962 23.7716 33.148C23.9987 32.5999 24.0581 31.9967 23.9424 31.4147C23.8266 30.8328 23.5409 30.2982 23.1213 29.8787C22.7018 29.4591 22.1672 29.1734 21.5853 29.0576C21.0033 28.9419 20.4001 29.0013 19.8519 29.2284C19.3038 29.4554 18.8352 29.8399 18.5056 30.3333C18.1759 30.8266 18 31.4067 18 32C18 32.7957 18.3161 33.5587 18.8787 34.1213C19.4413 34.6839 20.2044 35 21 35ZM21 31C21.1978 31 21.3911 31.0586 21.5556 31.1685C21.72 31.2784 21.8482 31.4346 21.9239 31.6173C21.9996 31.8 22.0194 32.0011 21.9808 32.1951C21.9422 32.3891 21.847 32.5673 21.7071 32.7071C21.5673 32.847 21.3891 32.9422 21.1951 32.9808C21.0011 33.0194 20.8 32.9996 20.6173 32.9239C20.4346 32.8482 20.2784 32.72 20.1685 32.5556C20.0586 32.3911 20 32.1978 20 32C20 31.7348 20.1054 31.4804 20.2929 31.2929C20.4804 31.1054 20.7348 31 21 31Z" fill="#3D9AE2"/>
<path d="M57 31C57 29.84 56.06 26 54 26C51.94 26 51 29.84 51 31C51.0011 31.4147 51.0888 31.8247 51.2576 32.2035C51.4264 32.5824 51.6724 32.9218 51.98 33.2C51.8735 34.024 51.5939 34.8162 51.1596 35.5245C50.7253 36.2329 50.1461 36.8413 49.46 37.31C48.2845 35.8889 46.9183 34.637 45.4 33.59C45.4999 32.7941 45.53 31.9911 45.49 31.19L45 23.25V23.13C44.9352 22.3544 44.8081 21.5852 44.62 20.83C45.1622 20.658 45.685 20.4302 46.18 20.15C47.434 19.4942 48.4586 18.4724 49.1177 17.2202C49.7769 15.968 50.0392 14.5449 49.87 13.14C49.7683 12.649 49.4819 12.2159 49.07 11.93C47.24 10.69 44.27 10.86 41.68 12.35C41.056 12.7242 40.4757 13.1669 39.95 13.67C39.7122 13.4844 39.4652 13.3108 39.21 13.15L36.9 3.16999C36.8913 3.12538 36.8779 3.0818 36.86 3.03999C36.7162 2.66327 36.4613 2.33911 36.1292 2.11041C35.797 1.88171 35.4033 1.75926 35 1.75926C34.5968 1.75926 34.203 1.88171 33.8709 2.11041C33.5387 2.33911 33.2839 2.66327 33.14 3.03999C33.1221 3.0818 33.1087 3.12538 33.1 3.16999L31.29 11H26.71L24.9 3.16999C24.8913 3.12538 24.8779 3.0818 24.86 3.03999C24.7162 2.66327 24.4613 2.33911 24.1292 2.11041C23.797 1.88171 23.4033 1.75926 23 1.75926C22.5968 1.75926 22.203 1.88171 21.8709 2.11041C21.5387 2.33911 21.2839 2.66327 21.14 3.03999C21.1221 3.0818 21.1087 3.12538 21.1 3.16999L18.79 13.15C18.5348 13.3108 18.2878 13.4844 18.05 13.67C17.5243 13.1669 16.9441 12.7242 16.32 12.35C13.73 10.86 10.76 10.69 8.94001 11.92C8.5143 12.2184 8.22047 12.6699 8.12001 13.18C7.96015 14.5796 8.22814 15.9948 8.88864 17.239C9.54915 18.4833 10.5712 19.4982 11.82 20.15C12.3168 20.4292 12.8392 20.6602 13.38 20.84C13.1896 21.6117 13.0625 22.3976 13 23.19L12.51 31.19C12.343 34.0361 13.1006 36.8599 14.67 39.24C14.47 39.62 14.27 40 14.08 40.42C13.3555 42.0072 12.812 43.6711 12.46 45.38C12.1561 46.9013 12.002 48.4487 12 50C11.9973 53.3925 12.4857 56.7675 13.45 60.02C13.6609 60.599 14.0444 61.0993 14.5487 61.4534C15.053 61.8075 15.6538 61.9983 16.27 62H21C21.6186 61.9968 22.2212 61.8031 22.7258 61.4452C23.2304 61.0874 23.6124 60.5827 23.82 60H26.18C26.3876 60.5827 26.7696 61.0874 27.2742 61.4452C27.7788 61.8031 28.3814 61.9968 29 62H34C34.6186 61.9968 35.2212 61.8031 35.7258 61.4452C36.2304 61.0874 36.6124 60.5827 36.82 60H41.18C41.3876 60.5827 41.7696 61.0874 42.2742 61.4452C42.7788 61.8031 43.3814 61.9968 44 62H48.41C48.9077 62.0015 49.3978 61.8788 49.8361 61.643C50.2744 61.4073 50.6469 61.066 50.92 60.65C52.9392 57.4654 54.0077 53.7708 54 50C54.0003 47.5815 53.5633 45.1829 52.71 42.92C53.6922 42.0443 54.4893 40.9809 55.0543 39.7925C55.6193 38.604 55.9409 37.3146 56 36C55.9991 35.1451 55.9018 34.2931 55.71 33.46C56.1083 33.1852 56.4339 32.8177 56.6586 32.3892C56.8833 31.9606 57.0005 31.4839 57 31ZM42.68 14.09C44.59 12.99 46.76 12.78 47.9 13.52C47.9851 14.5133 47.7716 15.5093 47.287 16.3805C46.8024 17.2517 46.0688 17.9584 45.18 18.41C44.8057 18.6211 44.4102 18.792 44 18.92C43.7992 18.4249 43.5653 17.9438 43.3 17.48C42.7789 16.5836 42.1547 15.7512 41.44 15C41.8183 14.6517 42.2342 14.3464 42.68 14.09V14.09ZM35 3.81999L35.95 7.89999C35.3225 8.0183 34.6787 8.02169 34.05 7.90999L35 3.81999ZM33.6 9.84999C34.5226 10.05 35.4774 10.05 36.4 9.84999L37.02 12.57C36.3826 12.847 35.695 12.99 35 12.99C34.305 12.99 33.6174 12.847 32.98 12.57L33.6 9.84999ZM32.52 14.53C34.114 15.1567 35.8861 15.1567 37.48 14.53L38.04 16.96C38.04 16.96 38.04 16.97 38.02 16.98C37.1444 17.6343 36.0797 17.9861 34.9867 17.9825C33.8936 17.9789 32.8313 17.62 31.96 16.96L32.52 14.53ZM23 3.81999L23.95 7.89999C23.3225 8.0183 22.6787 8.02169 22.05 7.90999L23 3.81999ZM21.6 9.84999C22.5226 10.05 23.4774 10.05 24.4 9.84999L25.02 12.57C24.3826 12.847 23.695 12.99 23 12.99C22.305 12.99 21.6174 12.847 20.98 12.57L21.6 9.84999ZM20.52 14.53C22.114 15.1567 23.8861 15.1567 25.48 14.53L26.04 16.96C26.04 16.96 26.04 16.97 26.02 16.98C25.1444 17.6343 24.0797 17.9861 22.9867 17.9825C21.8936 17.9789 20.8313 17.62 19.96 16.96L20.52 14.53ZM12.82 18.41C11.9415 17.9607 11.2122 17.2661 10.7205 16.4106C10.2289 15.5551 9.99595 14.5753 10.05 13.59C11.24 12.78 13.41 12.99 15.32 14.09C15.7658 14.3464 16.1817 14.6517 16.56 15C15.8453 15.7512 15.2211 16.5836 14.7 17.48C14.4347 17.9438 14.2008 18.4249 14 18.92C13.5898 18.792 13.1943 18.6211 12.82 18.41V18.41ZM14.51 31.31L15 23.27C15.1077 21.5843 15.6003 19.9457 16.44 18.48C16.8841 17.6985 17.425 16.9761 18.05 16.33L18.01 16.51C17.9276 16.8867 17.9534 17.279 18.0843 17.6417C18.2153 18.0044 18.446 18.3228 18.75 18.56C19.97 19.4939 21.4636 19.9999 23 19.9999C24.5364 19.9999 26.03 19.4939 27.25 18.56C27.554 18.3228 27.7848 18.0044 27.9157 17.6417C28.0466 17.279 28.0724 16.8867 27.99 16.51L27.18 13H30.82L30.01 16.51C29.9276 16.8867 29.9534 17.279 30.0843 17.6417C30.2153 18.0044 30.446 18.3228 30.75 18.56C31.97 19.4939 33.4636 19.9999 35 19.9999C36.5364 19.9999 38.03 19.4939 39.25 18.56C39.554 18.3228 39.7848 18.0044 39.9157 17.6417C40.0466 17.279 40.0724 16.8867 39.99 16.51L39.95 16.33C40.575 16.9761 41.1159 17.6985 41.56 18.48C42.3897 19.9246 42.882 21.5382 43 23.2V23.31L43.49 31.32C43.5534 32.2601 43.4963 33.2044 43.32 34.13C43.28 34.32 43.24 34.52 43.18 34.72C42.7141 36.5866 41.7659 38.2981 40.4303 39.6828C39.0947 41.0676 37.4186 42.077 35.57 42.61C34.6322 42.8704 33.6633 43.0016 32.69 43H30V40.9C31.74 40.57 33 39.42 33 38C33 36.32 31.24 35 29 35C26.76 35 25 36.32 25 38C25 39.42 26.26 40.57 28 40.9V43H25.31C24.3367 43.0016 23.3678 42.8704 22.43 42.61C20.6067 42.0893 18.9517 41.0997 17.63 39.74C17.2737 39.3865 16.9461 39.0053 16.65 38.6C15.1058 36.4952 14.3485 33.9155 14.51 31.31V31.31ZM29 39C27.78 39 27 38.41 27 38C27 37.59 27.78 37 29 37C30.22 37 31 37.59 31 38C31 38.41 30.22 39 29 39ZM22 59C22 59.2652 21.8947 59.5196 21.7071 59.7071C21.5196 59.8946 21.2652 60 21 60H16.27C16.0633 59.9992 15.8619 59.9343 15.6936 59.8143C15.5252 59.6943 15.3982 59.5251 15.33 59.33C15.1678 58.8959 15.0342 58.4516 14.93 58H22V59ZM35 59C35 59.2652 34.8947 59.5196 34.7071 59.7071C34.5196 59.8946 34.2652 60 34 60H29C28.7348 60 28.4804 59.8946 28.2929 59.7071C28.1054 59.5196 28 59.2652 28 59V58H35V59ZM49.23 59.58C49.1395 59.7131 49.017 59.8214 48.8737 59.8948C48.7304 59.9682 48.5709 60.0044 48.41 60H44C43.7348 60 43.4804 59.8946 43.2929 59.7071C43.1054 59.5196 43 59.2652 43 59V58H50.11C49.8462 58.5426 49.5524 59.07 49.23 59.58V59.58ZM50.97 56H43V52H41V58H37V52H35V56H28V52H26V58H24V52H22V56H14.52C14.1966 54.0158 14.0228 52.0102 14 50C13.9981 48.5828 14.1388 47.169 14.42 45.78C14.7389 44.2185 15.2355 42.6986 15.9 41.25C15.95 41.16 15.99 41.07 16.04 40.97C16.09 41.03 16.15 41.09 16.2 41.15C17.3843 42.3677 18.8007 43.3358 20.3653 43.997C21.93 44.6583 23.6113 44.9993 25.31 45H32.69C33.8461 44.9996 34.9967 44.8414 36.11 44.53C38.2055 43.9266 40.1146 42.8036 41.66 41.2651C43.2055 39.7267 44.3371 37.8227 44.95 35.73C47.1453 37.4044 48.9239 39.5636 50.1469 42.039C51.3698 44.5144 52.0041 47.239 52 50C51.997 52.0437 51.6488 54.0723 50.97 56ZM51.83 40.96C51.4778 40.2602 51.0837 39.5824 50.65 38.93C52.2157 37.8161 53.3411 36.1882 53.83 34.33C53.9371 34.8804 53.994 35.4393 54 36C53.9144 37.8647 53.1414 39.6316 51.83 40.96ZM54 32C53.7348 32 53.4804 31.8946 53.2929 31.7071C53.1054 31.5196 53 31.2652 53 31C53.0814 29.9578 53.4254 28.9533 54 28.08C54.5746 28.9533 54.9186 29.9578 55 31C55 31.2652 54.8947 31.5196 54.7071 31.7071C54.5196 31.8946 54.2652 32 54 32Z" fill="#3D9AE2"/>
<path d="M43 48H41V50H43V48Z" fill="#3D9AE2"/>
</svg>
